<svg xmlns="http://www.w3.org/2000/svg" width="38" height="38" viewBox="0 0 38 38">
    <defs>
        <filter id="74j5k6wiva">
            <feColorMatrix in="SourceGraphic" values="0 0 0 0 0.905882 0 0 0 0 0.976471 0 0 0 0 1.000000 0 0 0 1.000000 0"/>
        </filter>
        <filter id="wf0gj80sib">
            <feColorMatrix in="SourceGraphic" values="0 0 0 0 0.000000 0 0 0 0 0.654902 0 0 0 0 0.898039 0 0 0 1.000000 0"/>
        </filter>
    </defs>
    <g fill="none" fill-rule="evenodd">
        <g>
            <g>
                <g>
                    <g filter="url(#74j5k6wiva)" transform="translate(-211 -1091) translate(170 744) translate(41 347)">
                        <rect width="38" height="38" fill="#00A7E5" rx="19"/>
                    </g>
                    <g filter="url(#wf0gj80sib)" transform="translate(-211 -1091) translate(170 744) translate(41 347)">
                        <g fill="#000" fill-rule="nonzero">
                            <path d="M12 11c2.21 0 4-1.79 4-4s-1.79-4-4-4-4 1.79-4 4 1.79 4 4 4zm0-6c1.105 0 2 .895 2 2s-.895 2-2 2-2-.895-2-2 .895-2 2-2zM12 13c-3.866 0-7 3.134-7 7 0 .552.448 1 1 1s1-.448 1-1c0-2.761 2.239-5 5-5s5 2.239 5 5c0 .552.448 1 1 1s1-.448 1-1c0-3.866-3.134-7-7-7z" transform="translate(7 7)"/>
                        </g>
                    </g>
                </g>
            </g>
        </g>
    </g>
</svg>
