<svg xmlns="http://www.w3.org/2000/svg" width="51" height="44" viewBox="0 0 51 44">
    <defs>
        <filter id="lymsp4d8ga">
            <feColorMatrix in="SourceGraphic" values="0 0 0 0 0.333333 0 0 0 0 0.831373 0 0 0 0 1.000000 0 0 0 1.000000 0"/>
        </filter>
    </defs>
    <g fill="none" fill-rule="evenodd">
        <g>
            <g filter="url(#lymsp4d8ga)" transform="translate(-763 -304) translate(167 272)">
                <g>
                    <path fill="#000" fill-rule="nonzero" d="M15.07 35.86h-3.78c-.411 0-.745.333-.745.744 0 .41.334.744.746.744h3.778c.411 0 .746.334.746.744s-.335.745-.746.745H5.216c-3.03 0-4.73-3.388-3.087-5.809l9.02-13.297c.163-.242.17-.558.017-.807-.153-.249-.437-.386-.728-.349l-1.092.137c-.407.05-.781-.239-.833-.646-.051-.407.24-.78.647-.831l4.328-.542c.408-.051.781.238.832.645l.544 4.32c.052.4-.246.78-.647.83-.612.077-.814-.497-.878-1.004-.039-.308-.264-.559-.566-.631-.302-.072-.618.05-.792.306L3.364 33.863c-.97 1.42-.025 3.489 1.853 3.485h2.586c.412 0 .746-.333.746-.744s-.334-.745-.746-.745H5.217c-.636-.016-.967-.617-.618-1.161l7.81-11.513c.483.575 1.244.874 1.994.78.593-.074 1.121-.374 1.488-.845.366-.471.527-1.056.453-1.648l-.544-4.32c-.153-1.22-1.272-2.09-2.498-1.936l-4.327.542c-1.224.153-2.095 1.272-1.942 2.494.133 1.052.983 1.843 2 1.944L.893 32.194c-2.294 3.381.07 8.131 4.323 8.131h9.852c1.234 0 2.238-1.001 2.238-2.233 0-1.231-1.004-2.233-2.238-2.233zM26.126 4.78l5.5 8.107c.23.34.694.43 1.035.2.341-.23.43-.694.2-1.034l-5.5-8.107c-.868-1.306-2.85-1.287-3.705 0l-4.58 6.753c-.324.515-1.092.282-1.278-.067-.063-.12-.185-.432.042-.767l4.581-6.754c1.436-2.116 4.663-2.23 6.175 0l10.51 15.493c.175.26.495.381.8.305.304-.077.528-.336.559-.648.041-.412 0-1.112.36-1.406.155-.126.35-.184.547-.165.403.04.71.412.668.815l-.435 4.331c-.039.402-.415.708-.817.667l-4.34-.435c-.403-.038-.708-.412-.667-.815.04-.403.413-.708.816-.666l.616.062c.288.029.567-.112.715-.36.148-.248.14-.56-.023-.798l-3.342-4.928c-.23-.34-.694-.43-1.035-.199-.341.23-.43.693-.2 1.034l2.567 3.785c-.284.083-.552.223-.788.416-.463.377-.75.912-.81 1.506-.121 1.204.788 2.323 2.003 2.444.219.022 4.363.446 4.567.446 1.122 0 2.115-.888 2.222-2.01l.435-4.331c.06-.594-.116-1.175-.494-1.636-.378-.462-.914-.75-1.509-.809-.594-.06-1.177.116-1.64.493-.214.175-.39.384-.525.617L29.832 2.276c-2.064-3.044-6.593-3.026-8.645 0l-4.582 6.755c-.465.686-.512 1.567-.123 2.299.77 1.447 2.91 1.579 3.829.205l4.582-6.755c.285-.432.947-.433 1.234 0zm23.998 27.414l-3.302-4.868c-.417-.614-1.11-.98-1.852-.98-.83 0-1.587.454-1.976 1.185-.39.732-.342 1.613.123 2.3l3.302 4.867c.349.543.026 1.145-.617 1.162h-8.268c-.823-2.128-2.893-3.642-5.312-3.642h-4.88c-.782 0-1.418.635-1.418 1.416v1.288H21.85c-.412 0-.746.334-.746.745 0 .41.334.744.746.744h4.075v2.977H21.85c-.412 0-.746.334-.746.745 0 .41.334.744.746.744h4.075v1.289c0 .78.636 1.416 1.418 1.416h4.88c2.27 0 4.234-1.334 5.147-3.256h8.433c4.025.032 6.653-4.765 4.322-8.132zm-17.902 9.9h-4.807v-8.388h4.807c2.317 0 4.202 1.881 4.202 4.194 0 2.312-1.885 4.193-4.202 4.193zm13.58-3.257h-7.966c.082-.482.1-.997.052-1.489h7.914c1.735.017 2.851-2.042 1.852-3.484l-3.302-4.868c-.227-.335-.104-.648-.04-.767.062-.118.253-.395.658-.395.247 0 .478.122.617.327l3.302 4.868c1.631 2.36-.155 5.835-3.087 5.808zM23.3 23.675l.347.198c-.26.618-.517 1.234-.749 1.792l-.147.351c-.15.358-.306.728-.45 1.1-.276.712.04 1.5.733 1.836.156.075.382.153.649.153.322 0 .703-.113 1.093-.482l1.102-1.04c1.424-1.345 2.848-2.69 4.27-4.036.364-.344.54-.81.485-1.276-.057-.472-.342-.888-.784-1.142-.585-.336-1.17-.673-1.754-1.011l-.724-.42.077-.18c.426-1 .867-2.034 1.268-3.068.172-.445.113-.945-.158-1.337-.282-.406-.752-.648-1.261-.648h-.031c-.359.012-.704.174-1.027.48-1.121 1.065-2.265 2.145-3.372 3.189-.666.628-1.333 1.257-1.998 1.887-.36.34-.537.801-.486 1.267.05.46.318.87.735 1.121.723.435 1.465.858 2.182 1.266zm-1.405-2.574l1.997-1.886C25 18.17 27.284 16.01 27.29 16.003c-.383.982-.806 1.973-1.214 2.932l-.298.7c-.176.415-.028.848.368 1.076l1.202.694c.585.34 1.171.678 1.758 1.015.016.009.028.018.036.025l-.02.021c-1.422 1.347-2.845 2.691-4.27 4.036l-1.1 1.04-.025.022c.128-.325.266-.653.4-.972.05-.119.1-.237.148-.355.297-.713.634-1.52.966-2.304.176-.416.027-.848-.37-1.076-.277-.16-.554-.317-.832-.475-.71-.404-1.443-.822-2.15-1.247-.006-.004-.01-.008-.015-.01.004-.007.011-.015.02-.024z" transform="translate(596 32)"/>
                </g>
            </g>
        </g>
    </g>
</svg>
