<svg xmlns="http://www.w3.org/2000/svg" width="24" height="24" viewBox="0 0 24 24">
    <defs>
        <filter id="dsuvvaf0ba">
            <feColorMatrix in="SourceGraphic" values="0 0 0 0 0.000000 0 0 0 0 0.415686 0 0 0 0 0.623529 0 0 0 1.000000 0"/>
        </filter>
    </defs>
    <g fill="none" fill-rule="evenodd">
        <g>
            <g>
                <g filter="url(#dsuvvaf0ba)" transform="translate(-1203 -879) translate(0 756) translate(1065 123)">
                    <g fill="#000" fill-rule="nonzero">
                        <path d="M12 9.619c-1.315 0-2.38 1.067-2.38 2.382 0 1.315 1.066 2.38 2.381 2.38 1.315 0 2.381-1.066 2.381-2.381 0-1.315-1.067-2.38-2.382-2.381zm5.567-1.83c-.245-.622-.736-1.113-1.357-1.358-.938-.37-3.17-.287-4.21-.287s-3.27-.086-4.21.287c-.621.245-1.113.736-1.358 1.357-.37.938-.287 3.172-.287 4.212 0 1.039-.082 3.27.289 4.211.245.621.737 1.113 1.358 1.358.937.37 3.17.287 4.21.287s3.27.086 4.21-.287c.62-.245 1.112-.737 1.357-1.358.373-.937.287-3.172.287-4.211 0-1.04.086-3.27-.287-4.211h-.002zM12 15.66c-2.022 0-3.66-1.64-3.66-3.661 0-2.022 1.638-3.66 3.66-3.66 2.022 0 3.66 1.638 3.66 3.66.002.971-.383 1.903-1.07 2.59-.687.687-1.619 1.072-2.59 1.07zm3.812-6.62c-.346 0-.658-.209-.79-.528-.133-.32-.06-.687.185-.931.244-.245.612-.318.931-.186.32.132.528.444.528.79 0 .226-.089.444-.249.605-.16.16-.377.25-.604.251l-.001-.002zM19.857 2H4.143C2.959 2 2 2.96 2 4.143v15.714C2 21.041 2.96 22 4.143 22h15.714C21.041 22 22 21.04 22 19.857V4.143C22 2.959 21.04 2 19.857 2zm-.764 12.946c-.058 1.145-.319 2.158-1.154 2.992-.835.833-1.848 1.1-2.991 1.154-1.18.066-4.714.066-5.893 0-1.144-.058-2.155-.32-2.991-1.154-.837-.835-1.1-1.85-1.154-2.992-.067-1.179-.067-4.714 0-5.892.057-1.145.315-2.158 1.154-2.992.838-.833 1.851-1.096 2.99-1.15 1.18-.067 4.715-.067 5.894 0 1.144.057 2.157.319 2.99 1.154.834.834 1.1 1.849 1.155 2.993.066 1.175.066 4.707 0 5.887z" transform="translate(138)"/>
                    </g>
                </g>
            </g>
        </g>
    </g>
</svg>
