<svg xmlns="http://www.w3.org/2000/svg" width="24" height="24" viewBox="0 0 24 24">
    <defs>
        <filter id="dvyj7do49a">
            <feColorMatrix in="SourceGraphic" values="0 0 0 0 0.000000 0 0 0 0 0.415686 0 0 0 0 0.623529 0 0 0 1.000000 0"/>
        </filter>
        <filter id="yg56d613cb">
            <feColorMatrix in="SourceGraphic" values="0 0 0 0 0.000000 0 0 0 0 0.588235 0 0 0 0 0.878431 0 0 0 1.000000 0"/>
        </filter>
    </defs>
    <g fill="none" fill-rule="evenodd">
        <g>
            <g>
                <g filter="url(#dvyj7do49a)" transform="translate(-1247 -879) translate(0 756) translate(1065 123)">
                    <g fill="#000" fill-rule="nonzero" filter="url(#yg56d613cb)" transform="translate(182)">
                        <path d="M22.01 9.956c.044-1.3-.24-2.592-.828-3.754-.399-.477-.952-.799-1.564-.91-2.53-.23-5.07-.323-7.61-.281-2.53-.044-5.06.047-7.582.272-.498.091-.96.325-1.327.673-.818.755-.91 2.046-1 3.137-.132 1.961-.132 3.93 0 5.891.026.614.118 1.224.273 1.818.11.46.331.884.645 1.237.37.367.842.614 1.355.709 1.96.242 3.935.342 5.91.3 3.181.045 5.972 0 9.273-.255.525-.09 1.01-.336 1.39-.709.255-.254.445-.566.555-.909.325-.998.485-2.042.473-3.091.036-.51.036-3.582.036-4.128zM9.953 14.63V9.002l5.382 2.827c-1.51.837-3.5 1.782-5.382 2.8z"/>
                    </g>
                </g>
            </g>
        </g>
    </g>
</svg>
