<svg xmlns="http://www.w3.org/2000/svg" width="24" height="24" viewBox="0 0 24 24">
    <defs>
        <filter id="ezaco454sa">
            <feColorMatrix in="SourceGraphic" values="0 0 0 0 0.000000 0 0 0 0 0.415686 0 0 0 0 0.623529 0 0 0 1.000000 0"/>
        </filter>
    </defs>
    <g fill="none" fill-rule="evenodd">
        <g>
            <g>
                <g filter="url(#ezaco454sa)" transform="translate(-1112 -879) translate(0 756) translate(1065 123)">
                    <g fill="#000" fill-rule="nonzero">
                        <path d="M8.08 20c2.987.1 5.888-1.012 8.043-3.084 2.155-2.072 3.38-4.927 3.397-7.916.678-.839 1.18-1.804 1.48-2.84.046-.167-.011-.346-.145-.456-.134-.11-.32-.131-.475-.054-.727.35-1.596.197-2.16-.38-.71-.777-1.703-1.233-2.754-1.265-1.051-.032-2.07.363-2.826 1.095-1.041 1.008-1.477 2.488-1.15 3.9C8.14 9.2 5.84 7.61 4 5.43c-.113-.128-.29-.177-.453-.125-.163.052-.28.195-.297.365-.718 3.982 1.117 7.99 4.6 10.05-1.14 1.308-2.742 2.125-4.47 2.28-.19.031-.339.18-.37.37-.032.19.06.379.23.47 1.504.751 3.16 1.148 4.84 1.16" transform="translate(47)"/>
                    </g>
                </g>
            </g>
        </g>
    </g>
</svg>
