<svg xmlns="http://www.w3.org/2000/svg" width="47" height="47" viewBox="0 0 47 47">
    <defs>
        <filter id="2dsn5sh8da">
            <feColorMatrix in="SourceGraphic" values="0 0 0 0 0.333333 0 0 0 0 0.831373 0 0 0 0 1.000000 0 0 0 1.000000 0"/>
        </filter>
    </defs>
    <g fill="none" fill-rule="evenodd">
        <g>
            <g filter="url(#2dsn5sh8da)" transform="translate(-478 -302) translate(167 272)">
                <g>
                    <path fill="#000" fill-rule="nonzero" d="M5.848 24.987c-.46-5.176 1.351-10.254 4.968-13.934 2.702-2.748 6.142-4.504 9.95-5.078 3.68-.555 7.513.076 10.792 1.776.223.116.248.34.072.535l-1.586 1.589c-1.054 1.055-.328 2.927 1.21 2.926h.004l8.273-.017c.947-.002 1.717-.774 1.717-1.72l-.009-8.261c.014-1.517-1.902-2.258-2.931-1.207l-1.954 1.958c-.113.113-.288.135-.417.054C31.02.5 25.13-.654 19.357.356c-.375.065-.626.422-.56.797.065.374.422.625.796.56 5.437-.951 10.98.135 15.61 3.059.667.422 1.562.32 2.126-.246l1.954-1.957c.26-.233.564-.084.58.235l.008 8.26c0 .19-.154.343-.343.343l-8.273.018c-.33-.016-.466-.326-.237-.578l1.587-1.588c.806-.798.588-2.211-.413-2.73-3.536-1.833-7.666-2.513-11.631-1.915-4.105.619-7.814 2.512-10.726 5.474-3.9 3.968-5.854 9.443-5.358 15.02.04.46-.118.905-.436 1.223-.43.43-1.025.563-1.594.357-.56-.202-.925-.675-.978-1.266C.877 18.9 3.169 12.51 7.758 7.89c2.478-2.495 5.42-4.313 8.745-5.405.36-.119.558-.507.44-.869-.12-.36-.508-.558-.87-.44-3.533 1.16-6.66 3.093-9.292 5.744C1.905 11.828-.531 18.617.097 25.546.2 26.666.92 27.6 1.98 27.983c.327.118.663.176.995.176.752 0 1.483-.296 2.041-.855.607-.608.91-1.452.833-2.317zM22.403 37.63c.098.048.201.07.303.07.254 0 .5-.14.619-.384.868-1.77 1.803-4.217 2.257-7.168 1.733-1.11 4.483-3.379 5.128-6.888.479-2.61-.284-5.457-2.148-8.02-1.909-2.623-4.842-4.709-8.258-5.872-.405-.138-.842-.057-1.17.217-.327.273-.485.688-.422 1.111.268 1.798-.147 3.625-.926 5.122-.212.407-.43.827-.648 1.353-.735 1.781-1.365 4.671-.719 6.954.557 1.97 2.147 3.663 4.595 4.894 1.237.622 2.437.998 3.163 1.193-.443 2.664-1.295 4.88-2.089 6.497-.167.341-.026.754.315.921zm-4.66-13.88c-.37-1.31-.308-3.691.668-6.054.194-.47.398-.862.596-1.242.94-1.807 1.375-3.491 1.103-5.696 3.042 1.087 5.641 2.96 7.339 5.292 1.64 2.254 2.317 4.726 1.906 6.96-.218 1.188-.975 3.334-3.562 5.313.146-1.885.033-4.012-.286-5.934.354-.327.66-.698.91-1.107.638-1.04.775-2.08.778-2.771.001-.38-.306-.69-.686-.691h-.003c-.379 0-.687.306-.688.685-.002.546-.157 1.448-.666 2.2-.447-1.794-1.1-3.54-1.96-5.217-.173-.339-.588-.472-.926-.3-.338.174-.472.589-.299.927 1.112 2.173 1.862 4.464 2.238 6.831-.12-.111-.24-.22-.364-.327-.883-.758-1.865-1.399-2.918-1.905-.342-.165-.753-.02-.918.322-.165.343-.02.754.322.919.945.454 1.825 1.029 2.617 1.709.546.469 1.05.99 1.505 1.552.072 1.27.034 2.48-.085 3.62-1.714-.482-5.726-1.926-6.62-5.086zm28.53-6c-.257-1.01-1.013-1.779-2.02-2.055-1.019-.279-2.073 0-2.82.749-.716.717-1.006 1.772-.757 2.752.949 3.732.64 7.748-.868 11.307-.148.35.015.754.365.902.35.149.754-.015.903-.365 1.625-3.834 1.957-8.161.934-12.183-.13-.512.022-1.064.398-1.44.392-.393.946-.54 1.48-.394.525.144.917.542 1.05 1.066 1.05 4.121.89 8.443-.463 12.5-1.386 4.156-3.95 7.766-7.412 10.44-3.995 3.085-8.975 4.713-14.019 4.587-4.972-.124-9.796-1.934-13.583-5.095-.607-.507-1.507-.522-2.14-.036L5.13 42.17c-.275.191-.573.03-.544-.309l1.079-8.195c.024-.187.197-.32.385-.296l8.198 1.07c.339.061.41.387.159.603l-1.781 1.368c-.905.682-.888 2.105.05 2.761 3.262 2.282 7.262 3.498 11.272 3.426 4.148-.075 8.072-1.466 11.346-4.021 1.653-1.29 3.07-2.83 4.209-4.579.207-.318.117-.745-.201-.953-.32-.207-.745-.117-.953.201-1.056 1.62-2.37 3.049-3.902 4.245-3.037 2.371-6.676 3.661-10.524 3.73-3.72.065-7.433-1.06-10.458-3.177-.202-.142-.202-.371 0-.54l1.78-1.369c1.202-.907.634-2.886-.82-3.061l-8.197-1.069c-.939-.122-1.804.542-1.928 1.481L3.22 41.682c-.09.689.24 1.359.841 1.706.604.349 1.352.3 1.906-.126l2.193-1.685c.126-.097.303-.096.42.001 4.023 3.36 9.148 5.282 14.43 5.415 5.35.134 10.652-1.597 14.894-4.873 3.68-2.842 6.404-6.68 7.877-11.095 1.437-4.308 1.607-8.899.492-13.276z" transform="translate(311 30)"/>
                </g>
            </g>
        </g>
    </g>
</svg>
