<svg xmlns="http://www.w3.org/2000/svg" width="47" height="47" viewBox="0 0 47 47">
    <defs>
        <filter id="a9yvqzjrfa">
            <feColorMatrix in="SourceGraphic" values="0 0 0 0 0.333333 0 0 0 0 0.831373 0 0 0 0 1.000000 0 0 0 1.000000 0"/>
        </filter>
    </defs>
    <g fill="none" fill-rule="evenodd">
        <g>
            <g filter="url(#a9yvqzjrfa)" transform="translate(-194 -302) translate(167 272)">
                <g>
                    <path fill="#000" fill-rule="nonzero" d="M33.373 24.883l.332-.333c.28-.28.38-.687.26-1.063-.119-.377-.434-.653-.824-.721l-4.34-.76c-.338-.06-.685.05-.928.293-.242.243-.352.59-.293.928l.76 4.34c.068.39.344.705.72.824.378.12.785.02 1.064-.26l.333-.333 2.044 2.044c.402.406 1.088.408 1.491 0l1.424-1.424c.411-.411.411-1.08 0-1.492l-2.043-2.043zm-.126 3.757l-2.044-2.043c-.206-.206-.476-.309-.746-.309-.33 0-.647.168-.868.43l-.573-3.277 3.277.574c-.508.395-.582 1.156-.122 1.613l2.044 2.044-.968.968zm-6.474-7.792c.38 0 .688-.308.688-.688v-.943l1.23 1.397c.252.287.687.313.972.062.285-.25.313-.686.062-.971l-1.022-1.16c.7-.28 1.193-.944 1.193-1.72 0-1.024-.863-1.858-1.925-1.858h-1.199c-.38 0-.688.308-.688.688v4.505c0 .38.308.688.689.688zm1.198-4.504c.297 0 .548.22.548.482 0 .261-.25.482-.548.482-.12 0-.31 0-.504.002l-.002-.966h.506zm3.832 4.504c.38 0 .688-.308.688-.688v-2.288l1.785 2.585c.198.285.529.406.844.307.32-.1.527-.397.527-.763l-.042-4.352c-.004-.378-.311-.682-.688-.682h-.007c-.38.004-.685.315-.682.695l.023 2.336-1.882-2.725c-.171-.248-.483-.356-.771-.266-.288.09-.484.356-.484.657v4.496c0 .38.308.688.689.688zm-9.184-7.026h1.762c.38 0 .689-.308.689-.688 0-.38-.308-.689-.689-.689h-1.074v-.714h.944c.38 0 .689-.309.689-.689 0-.38-.308-.688-.689-.688h-.944v-.715h1.074c.38 0 .689-.308.689-.689 0-.38-.308-.688-.689-.688H22.62c-.38 0-.689.308-.689.688v4.184c0 .38.308.688.689.688zm-6.14-10.38c0 .38.308.689.688.689.38 0 .688-.308.688-.689 0-.38-.308-.688-.688-.688-.38 0-.689.308-.689.688zm3.92 17.361c.346.132.751-.038.888-.398l.252-.663h1.767l.25.66c.134.356.53.536.887.402.355-.135.535-.532.4-.888l-1.675-4.44c-.117-.308-.411-.51-.739-.509-.329 0-.619.2-.738.507L20 19.914c-.135.356.043.754.398.889zm2.028-3.391l.36.953h-.723l.363-.953zm-8.702-13.97c0 .38.308.689.688.689.38 0 .689-.308.689-.689 0-.38-.309-.688-.689-.688-.38 0-.688.308-.688.688zm-2.754 0c0 .38.308.689.688.689.38 0 .689-.308.689-.689 0-.38-.309-.688-.689-.688-.38 0-.688.308-.688.688zm32.587.509h-4.775V1.79c0-.987-.803-1.79-1.79-1.79h-4.009c-.38 0-.688.308-.688.688 0 .38.308.689.688.689h4.01c.227 0 .412.185.412.413v3.718H9.594V1.79c0-.228.185-.413.413-.413H29.77c.38 0 .689-.308.689-.689 0-.38-.308-.688-.689-.688H10.007c-.987 0-1.79.803-1.79 1.79v2.16H3.442C1.544 3.95 0 5.496 0 7.394V33.32c0 1.898 1.544 3.442 3.442 3.442h16.1l-.524 3.897h-.767c-.638 0-1.201.43-1.372 1.043l-.97 3.496c-.12.432-.032.884.24 1.241.27.357.684.562 1.132.562h12.438c.448 0 .861-.205 1.133-.562.271-.357.358-.81.238-1.241l-.97-3.496c-.17-.614-.733-1.043-1.37-1.043h-.768l-.524-3.897h16.1c1.898 0 3.442-1.544 3.442-3.442V7.393c0-1.898-1.544-3.442-3.442-3.442zm-4.775 4.13h4.086v23.172h-4.086V8.082zM8.905 26.643c.38 0 .689-.308.689-.688V6.884h27.812v24.37H9.594v-2.087c0-.38-.308-.689-.689-.689-.38 0-.688.308-.688.689v2.086H4.13V8.082h4.086v17.872c0 .38.308.688.688.688zM28.75 42.035c.021 0 .04.014.045.034l.97 3.496c.001.007.005.022-.008.04-.014.018-.03.018-.037.018H17.281c-.007 0-.023 0-.037-.018-.013-.018-.01-.033-.007-.04l.97-3.496c.005-.02.023-.034.044-.034h10.498zm-8.342-1.377l.524-3.897h5.138l.524 3.897h-6.186zm25.216-7.34c0 1.14-.927 2.066-2.065 2.066H3.442c-1.138 0-2.065-.927-2.065-2.065V7.393c0-1.138.927-2.065 2.065-2.065h4.775v1.377H3.81c-.583 0-1.056.473-1.056 1.056v23.814c0 .582.473 1.055 1.056 1.055h39.38c.583 0 1.056-.473 1.056-1.055V7.76c0-.583-.473-1.056-1.056-1.056h-4.407V5.328h4.775c1.138 0 2.065.927 2.065 2.065V33.32zM11.925 20.836c.275.047 1.087.013 1.697.01.38-.003.687-.313.685-.693-.002-.379-.31-.685-.689-.685h-.004l-.885.004v-3.816c0-.38-.308-.688-.688-.688-.38 0-.688.308-.688.688v4.5c0 .336.241.623.572.68zm4.359.013h1.88c.38 0 .689-.308.689-.688 0-.38-.308-.689-.689-.689h-1.192v-.854h1.054c.38 0 .688-.309.688-.689 0-.38-.308-.688-.688-.688h-1.054v-.855h1.192c.38 0 .689-.308.689-.689 0-.38-.308-.688-.689-.688h-1.88c-.38 0-.689.308-.689.688v4.464c0 .38.309.688.689.688z" transform="translate(27 30)"/>
                </g>
            </g>
        </g>
    </g>
</svg>
