<svg xmlns="http://www.w3.org/2000/svg" width="47" height="47" viewBox="0 0 47 47">
    <defs>
        <filter id="dpseykr6ma">
            <feColorMatrix in="SourceGraphic" values="0 0 0 0 0.333333 0 0 0 0 0.831373 0 0 0 0 1.000000 0 0 0 1.000000 0"/>
        </filter>
    </defs>
    <g fill="none" fill-rule="evenodd">
        <g>
            <g filter="url(#dpseykr6ma)" transform="translate(-1047 -298) translate(167 272)">
                <g>
                    <path fill="#000" fill-rule="nonzero" d="M14.413 2.754c-.38 0-.688.308-.688.688 0 .38.308.689.688.689.38 0 .689-.308.689-.689 0-.38-.309-.688-.689-.688zm2.754 0c-.38 0-.689.308-.689.688 0 .38.309.689.689.689.38 0 .688-.308.688-.689 0-.38-.308-.688-.688-.688zm-5.508 0c-.38 0-.688.308-.688.688 0 .38.308.689.688.689.38 0 .689-.308.689-.689 0-.38-.309-.688-.689-.688zm32.513 0h-5.389V1.79c0-.987-.803-1.79-1.79-1.79H10.007c-.987 0-1.79.803-1.79 1.79v2.16H3.442C1.544 3.95 0 5.496 0 7.394V33.32c0 1.898 1.544 3.442 3.442 3.442h16.1l-.524 3.897h-.767c-.638 0-1.201.429-1.372 1.043l-.97 3.496c-.12.432-.032.884.24 1.241.27.357.684.562 1.132.562h12.438c.448 0 .861-.205 1.133-.562.271-.357.358-.81.238-1.241l-.97-3.496c-.17-.614-.733-1.043-1.37-1.043h-.768l-.524-3.897h16.1c1.898 0 3.442-1.544 3.442-3.442V5.582c0-1.56-1.269-2.828-2.828-2.828zM9.594 6.884h11.152c.38 0 .689-.307.689-.688 0-.38-.309-.688-.689-.688H9.594V1.79c0-.228.185-.413.413-.413h26.986c.228 0 .413.185.413.413v.964h-4.538c-1.535 0-2.786 1.229-2.826 2.754h-6.083c-.38 0-.688.308-.688.688 0 .38.308.689.688.689h6.081v3.574c0 1.56 1.269 2.828 2.828 2.828h1.364v1.321c0 .395.236.748.601.9.362.15.78.07 1.062-.211l1.511-1.512v10.746c0 .38.309.688.689.688.38 0 .688-.308.688-.688V13.287h4.086v17.966h-4.086v-3.51c0-.38-.308-.688-.688-.688-.38 0-.689.309-.689.689v3.51H32V27.18c0-1.865-1.12-3.51-2.856-4.192l-1.86-.732c-.475-.187-.782-.638-.782-1.148v-.778c1.156-.898 1.902-2.3 1.902-3.874v-5.14c0-1.596-1.298-2.894-2.894-2.894h-4.02c-1.595 0-2.893 1.298-2.893 2.893v5.141c0 1.574.746 2.976 1.901 3.874v.778c0 .51-.307.961-.782 1.148l-1.86.732C16.121 23.67 15 25.316 15 27.18v4.072H9.594V6.885zM27.18 28.662c-.38 0-.688.308-.688.688v1.904h-5.986V29.35c0-.38-.308-.688-.688-.688-.38 0-.689.308-.689.688v1.904h-2.753v-4.072c0-1.295.778-2.437 1.983-2.91l1.693-.667c.918.9 2.147 1.407 3.447 1.407 1.3 0 2.53-.508 3.446-1.407l1.694.666c1.205.474 1.983 1.616 1.983 2.911v4.072H27.87V29.35c0-.38-.308-.688-.688-.688zM20.49 15.408c.968 0 1.925-.162 2.82-.482.52-.186 1.02-.424 1.494-.71.247.278.59.573 1.051.796.42.202.825.29 1.173.32v1.125c0 1.945-1.582 3.527-3.527 3.527s-3.527-1.582-3.527-3.527v-1.066c.172.01.344.017.516.017zm-.516-1.396v-2.696c0-.836.68-1.516 1.517-1.516h4.02c.836 0 1.517.68 1.517 1.516v2.631c-.177-.026-.373-.078-.574-.175-.411-.198-.664-.496-.804-.71-.127-.195-.33-.333-.559-.378-.229-.046-.47.004-.663.136-.493.338-1.025.61-1.581.809-.905.323-1.888.453-2.873.383zm5.788 8.807c-.63.523-1.425.815-2.261.815-.836 0-1.63-.292-2.261-.815.402-.464.636-1.064.636-1.71v-.026c.509.18 1.056.278 1.625.278.57 0 1.116-.099 1.625-.278v.026c0 .646.234 1.246.636 1.71zm2.988 19.216c.021 0 .04.014.045.034l.97 3.496c.008.022-.021.06-.045.058H17.281c-.024.003-.053-.036-.044-.058l.97-3.496c.005-.02.023-.034.044-.034h10.498zm-8.342-1.377l.524-3.897h5.138l.524 3.897h-6.186zm25.216-7.34c0 1.14-.927 2.066-2.065 2.066H3.442c-1.138 0-2.065-.926-2.065-2.065V7.393c0-1.139.927-2.065 2.065-2.065h4.775v1.377H3.81c-.583 0-1.056.473-1.056 1.056v23.813c0 .583.473 1.056 1.056 1.056h39.38c.583 0 1.056-.473 1.056-1.056V13.285c.502-.013.972-.157 1.377-.4V33.32zM8.217 8.083v23.171H4.13V8.082h4.086zm37.406 2.377c0 .8-.65 1.451-1.451 1.451h-6.346c-.318 0-.616.124-.84.348l-1.377 1.377v-.537c0-.655-.533-1.188-1.187-1.188h-1.554c-.8 0-1.451-.65-1.451-1.45V5.581c0-.8.651-1.451 1.451-1.451h11.304c.8 0 1.451.65 1.451 1.45v4.878zm-2.427-1.75h-9.353c-.38 0-.688.308-.688.688 0 .38.308.689.688.689h9.354c.38 0 .688-.308.688-.689 0-.38-.308-.688-.689-.688zm0-2.754h-9.353c-.38 0-.688.308-.688.689 0 .38.308.688.688.688h9.354c.38 0 .688-.308.688-.688 0-.38-.308-.689-.689-.689z" transform="translate(880 26)"/>
                </g>
            </g>
        </g>
    </g>
</svg>
